PathFileType	4	(X/Y/Z)	Patient4_TMGait_0pt6_02_right_28.trc.trc
DataRate	CameraRate	NumFrames	NumMarkers	Units	OrigDataRate	OrigDataStartFrame	OrigNumFrames
80.459770114942	80.459770114942	4	33	mm	80.459770114942	106	       141
Frame#	Time	Sacral			L.Shoulder			Chest			R.Shoulder			Neck			R.ASIS			L.ASIS			R.Thigh.Superior			R.Thigh.Lateral			R.Thigh.Inferior			R.Patella			L.Thigh.Superior			L.Thigh.Lateral			L.Thigh.Inferior			L.Patella			L.Shank.Superior			L.Shank.Lateral			L.Shank.Inferior			R.Shank.Superior			R.Shank.Lateral			R.Shank.Inferior			R.Heel			R.Midfoot.Superior			R.Midfoot.Lateral			R.Toe			L.Heel			L.Midfoot.Lateral			L.Midfoot.Superior			L.Toe			L.Elbow			L.Wrist			R.Elbow			R.Wrist			
		X1	Y1	Z1	X2	Y2	Z2	X3	Y3	Z3	X4	Y4	Z4	X5	Y5	Z5	X6	Y6	Z6	X7	Y7	Z7	X8	Y8	Z8	X9	Y9	Z9	X10	Y10	Z10	X11	Y11	Z11	X12	Y12	Z12	X13	Y13	Z13	X14	Y14	Z14	X15	Y15	Z15	X16	Y16	Z16	X17	Y17	Z17	X18	Y18	Z18	X19	Y19	Z19	X20	Y20	Z20	X21	Y21	Z21	X22	Y22	Z22	X23	Y23	Z23	X24	Y24	Z24	X25	Y25	Z25	X26	Y26	Z26	X27	Y27	Z27	X28	Y28	Z28	X29	Y29	Z29	X30	Y30	Z30	X31	Y31	Z31	X32	Y32	Z32	X33	Y33	Z33	

106	34.945000000000	906.860749267573	1028.800141004615	428.010249680210	1157.769467191676	1436.350668343370	264.057353837535	1234.586340888872	1351.013128856862	431.756807230452	1144.385373664954	1436.503731187110	596.536928822753	1151.102378107593	1494.806571952963	415.309230387379	1119.954372224379	954.041684887624	565.044394623713	1128.100741069401	957.191025718796	290.920256757343	1210.768041248248	803.674357361202	537.314736144033	1181.951468004849	681.726776442769	612.823032636477	1275.896959948080	648.798647930050	535.295460187465	1307.639624106795	541.697878524929	559.545204589635	1156.056615141710	745.317002873781	331.252461050524	1060.450947782870	636.030345956728	268.877448572351	1130.443817442324	553.412221857202	342.310407017829	1123.695733472296	483.289820412296	353.241440824086	1090.790198899293	414.477316922769	343.620889864716	994.243723718102	306.940563591033	292.060979015238	1031.676100803914	193.505446484395	367.186706094254	1246.287655883212	457.437750823611	569.776353140132	1137.090254694937	394.940019133136	631.890397808788	1147.470136480909	283.767506465459	587.109315585249	966.603383122069	181.479329385931	561.987616982479	1142.385930009033	155.969575122320	602.584434978861	1035.292533829002	133.341108559382	635.285651716487	1226.782414207168	57.805775840421	627.876015906388	891.382858005225	43.008062675243	408.103200593301	966.457421448336	38.021635367785	329.290667305710	1051.042344780904	97.152934598581	356.686649960784	1178.396577778180	39.964583970138	329.704464366948	1069.501798646927	1107.505817649859	117.652865941245	1240.555681832891	913.482770503810	138.497879874515	1016.019294046906	1114.492324108007	718.911058893657	1022.692117946868	853.186751055655	738.108792504094	
107	34.957428571429	906.025436149689	1029.080305723407	427.348896303917	1158.597295343613	1436.331489351718	264.342311319154	1233.824044764454	1351.142964166036	432.815028426295	1142.268187889243	1436.980522492278	596.595384114411	1150.595974072580	1495.011771158009	415.448645985946	1118.546175778183	954.835694872443	565.875825949049	1127.970485392078	957.383124716481	291.456300811414	1209.721343824296	805.604167087481	538.147414842395	1181.669052397097	683.212702169248	613.573408292280	1275.461692444690	650.809347794530	535.908853170651	1309.173128669088	545.916780181275	560.170254564522	1153.385514098530	744.372184142410	332.605372059982	1057.157921028995	636.029058965723	269.068959926695	1125.642347925144	552.682338262206	342.962557941090	1118.028310462726	482.714084692225	353.753665037533	1085.065130918299	414.212181705923	343.934240890448	988.139918779180	307.118557660086	292.132039780731	1024.795191299744	193.495752393835	367.310355329008	1252.403685283012	459.927653141649	570.898244670591	1148.414757257461	390.750312923694	634.431152777164	1165.400643658113	280.410688862479	589.343913057999	991.591707636270	166.438002580881	565.976142466888	1168.997050781867	152.840642948733	605.505229342665	1063.874041375965	123.098082890947	638.785473296045	1259.629732399072	60.215456375386	629.732296645882	883.936451799729	43.428539265461	407.992851865281	959.026899080161	38.231512027232	329.261183371824	1043.707724435903	97.211005394571	356.664259567883	1170.922395934264	39.885002212584	329.695785949447	1074.791401347500	1106.892018915840	116.829122398786	1250.046793608268	917.441470355644	142.028431106229	1007.130465869366	1118.373087656862	719.084952844284	1008.907177450930	857.261060006350	740.742802783962	
108	34.969857142857	905.302310598535	1029.156574825039	426.932821137144	1159.143601906671	1436.183609087297	264.705575762277	1232.990552243478	1351.171128138340	433.858525045392	1140.276274470474	1437.344958109858	596.730055542102	1149.984673393726	1495.101527414677	415.650975334471	1117.333455514345	955.389471700636	566.761133719216	1127.814100514412	957.560539526512	291.888066532131	1208.329576486493	806.524606943757	539.065366106883	1180.569596271715	683.894267944423	614.481664510485	1273.953843096770	651.607857163684	536.560898392791	1309.365078915394	549.155367743074	560.804507449981	1150.802660481984	743.369058987703	333.884639974561	1053.942157225248	635.950200354992	269.276948081715	1121.003850504929	551.888560935821	343.521640991198	1112.549535498461	482.093272479687	354.184949605148	1079.506030798067	413.879522831668	344.220331350566	982.147565157861	307.263689699055	292.205289123128	1017.977858294542	193.448191021311	367.429058643087	1257.379015133105	461.802823241987	572.082968770664	1159.234362299939	386.127057920278	637.180277636385	1182.875495709102	277.072326187950	591.651869170690	1017.074367836794	151.567911667759	570.142589661691	1195.410140629219	150.222561521131	608.448337198376	1092.779378950220	113.337618094341	642.346578625608	1292.043800155542	63.657017675486	631.470535155333	876.494411624554	43.859072267553	407.881469195621	951.597219313707	38.440168670455	329.231711367752	1036.376082917876	97.260424617755	356.643294348858	1163.445872432907	39.803636933545	329.692155026963	1080.156946629328	1106.041562783748	116.288931700891	1259.661697030197	921.531192104182	145.972077255766	998.917000570774	1122.000941584311	719.087214286571	996.181192058674	861.130057070070	742.899639161896	
109	34.982285714286	904.705767659556	1029.003968389680	426.773126308908	1159.368283559563	1435.902924579544	265.137539606652	1232.083368838867	1351.105217484052	434.873436514232	1138.410464463806	1437.592840881930	596.947185585144	1149.251184979077	1495.071737211954	415.911106681899	1116.348251167671	955.680233622467	567.684664351601	1127.617982299801	957.720907481915	292.191398221592	1206.653651282050	806.407123952415	540.078157203689	1178.739081294066	683.780510265926	615.591768039136	1271.482901250554	651.209884843861	537.290386062600	1308.310897702765	551.379878454556	561.480901885830	1148.340307693537	742.295549393426	335.046564019805	1050.790625126049	635.789951103105	269.495193561672	1116.513120180938	551.020308412848	343.973827119916	1107.240872459435	481.422298784645	354.526630647666	1074.090021971102	413.474797035251	344.472185823686	976.248859861834	307.371548963502	292.274993808660	1011.214611274085	193.360660540453	367.535927968227	1261.221295727003	463.057544661032	573.337033224598	1169.404226573960	381.211144147936	640.049297431715	1199.621330813644	273.880927878211	593.953301766491	1042.622472902715	137.253792720482	574.291633725071	1221.151680638429	148.203028462413	611.249245617057	1121.490217479550	104.303562798887	645.783493928433	1323.426287996179	68.116416247176	632.960305087964	869.051978308299	44.287390961302	407.772565082625	944.165135129525	38.640107737868	329.201940834202	1029.042146648535	97.300149118145	356.620653424458	1155.965463266550	39.722310778428	329.692373417446	1085.562305262913	1104.954225846255	116.051395651645	1269.354959547386	925.772990134765	150.285454309011	991.431250661384	1125.314496911514	718.952339766784	984.549451683928	864.703776649165	744.605491957460	
